<?xml version="1.0" encoding="UTF-8" standalone="no"?>
<!-- Created with Inkscape (http://www.inkscape.org/) -->

<svg
   width="512"
   height="512"
   viewBox="0 0 512 512"
   version="1.1"
   id="svg1"
   inkscape:version="1.4.2 (f4327f4, 2025-05-13)"
   sodipodi:docname="icon.svg"
   xmlns:inkscape="http://www.inkscape.org/namespaces/inkscape"
   xmlns:sodipodi="http://sodipodi.sourceforge.net/DTD/sodipodi-0.dtd"
   xmlns="http://www.w3.org/2000/svg"
   xmlns:svg="http://www.w3.org/2000/svg">
  <sodipodi:namedview
     id="namedview1"
     pagecolor="#ffffff"
     bordercolor="#111111"
     borderopacity="1"
     inkscape:showpageshadow="0"
     inkscape:pageopacity="0"
     inkscape:pagecheckerboard="1"
     inkscape:deskcolor="#d1d1d1"
     inkscape:document-units="px"
     inkscape:zoom="1.14"
     inkscape:cx="255.70175"
     inkscape:cy="255.70175"
     inkscape:window-width="1920"
     inkscape:window-height="1027"
     inkscape:window-x="-8"
     inkscape:window-y="-8"
     inkscape:window-maximized="1"
     inkscape:current-layer="svg1" />
  <defs
     id="defs1" />
  <path
     id="rect14-2-1"
     style="display:inline;fill:#29377e;fill-opacity:1;stroke-width:0.699392"
     inkscape:label="AZUL"
     d="M 38.070544,-89.958333 A 74.818291,74.818291 0 0 0 -36.747628,-15.140161 74.818291,74.818291 0 0 0 38.070544,59.678011 74.818291,74.818291 0 0 0 112.88872,-15.140161 74.818291,74.818291 0 0 0 38.070544,-89.958333 Z"
     transform="matrix(3.4102112,0,0,3.4102112,126.38735,307.84731)" />
  <path
     id="path13-1"
     style="display:inline;fill:#faa41b;fill-opacity:1;stroke-width:0.352778"
     inkscape:label="AMARILLO"
     d="m 32.77216,-89.770231 a 74.818291,74.818291 0 0 0 -69.519788,74.63007 74.818291,74.818291 0 0 0 13.759884,43.239738 c 0.653345,-1.523233 1.308322,-3.045874 1.965771,-4.567163 0.829028,-1.8415 1.396821,-3.842095 2.638599,-5.4684 1.679222,-2.102556 3.909012,-3.647336 5.972762,-5.337142 0.896056,-0.659694 0.842801,-1.876985 1.065051,-2.857707 0.938389,-4.822472 1.065637,-9.74387396 1.577165,-14.6192627 0.2187222,-1.6827499 0.067248,-3.4288622 0.578776,-5.0622233 0.7549444,-0.783166 2.0739614,-0.292722 3.0582113,-0.444417 1.4463889,-3.14325 2.426994,-6.476965 3.760494,-9.666077 0.7337777,-1.739194 2.83658133,-2.437894 3.429248,-4.261755 0.6561666,-1.940278 1.2945154,-3.890754 1.8448487,-5.866309 -1.3793611,-0.941917 -2.77951003,-1.855783 -4.1976766,-2.7342 0.2575277,-1.058333 0.52196644,-2.116625 0.91002194,-3.132625 1.70038886,-4.695472 3.13618066,-9.490026 4.92476396,-14.157276 1.3723055,-0.0388 2.7479463,-0.06319 4.1237793,-0.02791 2.4341674,-4.5085 4.0537964,-9.415631 6.6502404,-13.839465 1.799167,-2.917472 4.085146,-5.66555 7.122562,-7.344772 2.039056,-1.17475 4.473078,-0.899789 6.730856,-1.005623 0.416278,-0.754944 0.842829,-1.509854 1.26969,-2.257743 -0.772583,-0.398639 -1.548205,-0.790167 -2.320789,-1.178223 -0.22225,-2.194278 -0.37764,-4.399387 -0.35295,-6.604248 0.0071,-1.643944 0.836249,-3.146737 1.756999,-4.455542 0.859726,-1.217945 2.055421,-2.114694 3.251481,-2.98173 z"
     transform="matrix(3.4102112,0,0,3.4102112,126.38735,307.84731)" />
  <path
     id="path8-7"
     style="display:inline;fill:#fafafa;fill-opacity:1;stroke-width:0.352778"
     inkscape:label="ICON"
     d="m 38.070544,-89.958333 a 74.818291,74.818291 0 0 0 -5.298384,0.188102 c -1.196076,0.867047 -2.391744,1.763769 -3.251481,2.98173 -0.92075,1.308805 -1.749899,2.811598 -1.756999,4.455542 -0.0247,2.204861 0.1307,4.40997 0.35295,6.604248 0.772584,0.388056 1.548206,0.779584 2.320789,1.178223 -0.426861,0.747889 -0.853412,1.502799 -1.26969,2.257743 -2.257778,0.105834 -4.6918,-0.169127 -6.730856,1.005623 -3.037416,1.679222 -5.323395,4.4273 -7.122562,7.344772 -2.596444,4.423834 -4.216073,9.330965 -6.6502404,13.839465 -1.375833,-0.03528 -2.7514738,-0.01091 -4.1237793,0.02791 -1.7885833,4.66725 -3.2243751,9.461804 -4.92476396,14.157276 -0.3880555,1.016 -0.65249424,2.074292 -0.91002194,3.132625 1.41816657,0.878417 2.8183155,1.792283 4.1976766,2.7342 -0.5503333,1.975555 -1.1886821,3.926031 -1.8448487,5.866309 -0.59266667,1.823861 -2.6954703,2.522561 -3.429248,4.261755 -1.3335,3.189111 -2.3141051,6.522827 -3.760494,9.666077 -0.9842499,0.151695 -2.3032669,-0.338749 -3.0582113,0.444417 -0.5115276,1.6333611 -0.3600538,3.3794734 -0.578776,5.0622233 -0.511528,4.87538874 -0.638776,9.7967907 -1.577165,14.6192627 -0.22225,0.980722 -0.168995,2.198013 -1.065051,2.857707 -2.06375,1.689806 -4.29354,3.235102 -5.972762,5.337658 -1.241778,1.626305 -1.809571,3.626384 -2.638599,5.467884 -0.657446,1.521283 -1.312428,3.043936 -1.965771,4.567163 a 74.818291,74.818291 0 0 0 11.430827,12.750126 C -7.70249,35.855827 -3.8498738,30.861474 0.01395264,25.874906 1.2380915,24.350906 2.4236936,22.770317 3.1998047,20.964095 6.1631379,14.268373 9.097926,7.5621571 12.040092,0.85937907 c 0.553862,-1.224139 0.998424,-2.49780467 1.651062,-3.66902667 0.338667,-0.6879166 1.150186,-1.0829663 1.898075,-0.9947713 0.917222,0.6808611 1.474481,1.7108139 2.070675,2.6597859 2.790473,4.656667 5.711762,9.2429984 9.027873,13.543359 1.016,1.393472 2.613828,2.127313 4.060217,2.973979 -1.890889,3.795889 -4.078111,7.436529 -6.085417,11.172445 -0.627944,1.192389 -0.835834,2.536616 -1.068668,3.852478 -0.462138,2.670527 -1.058362,5.312448 -1.527556,7.982975 -0.670278,4.201584 -2.134257,8.212722 -3.213757,12.315527 -0.433916,1.760362 -1.171484,3.446777 -1.414901,5.256527 -0.03915,0.263892 -0.07352,0.528705 -0.105936,0.79375 a 74.818291,74.818291 0 0 0 20.738785,2.931604 74.818291,74.818291 0 0 0 3.962032,-0.104903 c 0.260822,-0.857222 0.838991,-1.883826 0.09663,-2.597258 -1.777999,-0.832556 -3.732588,-1.189178 -5.584672,-1.824178 -1.068916,-0.391584 -2.353034,-0.550161 -3.093868,-1.499133 -0.8255,-1.033639 -1.449847,-2.205096 -2.134236,-3.326929 1.040694,-1.143 2.127133,-2.243205 3.231327,-3.319177 0.677334,-0.652639 1.221017,-1.428757 1.563212,-2.300118 C 39.511746,36.34901 42.961603,28.008998 46.376492,19.658748 46.98327,18.155915 47.7771,16.674462 47.86529,15.02699 47.94996,13.02674 47.78769,10.945268 46.909276,9.1214071 45.790976,6.7613241 44.517579,4.478631 43.251107,2.192631 40.397135,-2.947341 37.557212,-8.0941145 34.720878,-13.24467 c -0.5715,-1.188861 -1.95795,-1.989893 -1.97559,-3.40806 -0.09525,-2.201333 -0.289085,-4.395681 -0.419613,-6.597014 0.878417,-0.116417 1.756476,-0.243361 2.631364,-0.384472 2.282473,-4.187472 4.346382,-8.487565 6.600631,-12.689148 0.271639,-0.525639 0.564224,-1.044243 0.744141,-1.608688 -0.402167,-0.934861 -1.107331,-1.693189 -1.714108,-2.497522 0.8255,-1.023056 1.678933,-2.028513 2.613794,-2.952791 1.68275,0.924278 3.337326,1.901451 4.988326,2.889229 0.8255,0.448027 1.704137,1.05453 2.695443,0.86403 1.897944,-0.3175 3.834708,-0.8997 5.393986,-2.060339 1.742722,-2.123722 1.851753,-5.178316 3.629753,-7.287927 0.335139,1.280584 0.592907,2.578544 0.864546,3.876766 3.072694,-0.532694 6.092597,-1.333438 9.122958,-2.053105 -0.469195,-2.804583 -1.287977,-5.535029 -1.845366,-8.321973 -0.324556,-1.04775 0.543678,-1.908376 0.850594,-2.843237 0.550334,-1.573389 0.726557,-3.253052 1.153418,-4.861719 6.427611,-0.03883 12.855024,0.02126 19.286162,0.0036 1.414639,-0.02116 2.836264,0.09184 4.250903,-0.05633 0.09525,-0.105834 0.289223,-0.317396 0.384473,-0.42323 0.04132,-0.37281 0.0642,-0.746474 0.07545,-1.120345 a 74.818291,74.818291 0 0 0 -6.86108,-6.798551 c -12.320264,0.01273 -24.642906,0.01124 -36.962601,-0.0047 -0.06703,-0.564445 -0.130716,-1.13261 -0.190686,-1.697054 0.934861,0 1.869708,0.01422 2.808097,0.02481 0.511528,-2.250722 1.206796,-4.458898 1.538407,-6.748426 -0.536222,-0.239889 -1.072465,-0.476595 -1.608687,-0.7059 -1.176288,-3.948743 -4.152179,-7.378649 -7.955587,-8.94674 a 74.818291,74.818291 0 0 0 -6.749459,-0.304891 z"
     transform="matrix(3.4102112,0,0,3.4102112,126.38735,307.84731)" />
</svg>
