<?xml version="1.0" encoding="UTF-8" standalone="no"?>
<!-- Created with Inkscape (http://www.inkscape.org/) -->

<svg
   width="159.24867mm"
   height="32.387257mm"
   viewBox="0 0 159.24867 32.387257"
   version="1.1"
   id="svg1"
   inkscape:version="1.4.2 (f4327f4, 2025-05-13)"
   sodipodi:docname="logo.svg"
   inkscape:export-filename="TGIcons.svg"
   inkscape:export-xdpi="2.7159178"
   inkscape:export-ydpi="2.7159178"
   xmlns:inkscape="http://www.inkscape.org/namespaces/inkscape"
   xmlns:sodipodi="http://sodipodi.sourceforge.net/DTD/sodipodi-0.dtd"
   xmlns="http://www.w3.org/2000/svg"
   xmlns:svg="http://www.w3.org/2000/svg">
  <sodipodi:namedview
     id="namedview1"
     pagecolor="#cdcdcd"
     bordercolor="#000000"
     borderopacity="0"
     inkscape:showpageshadow="2"
     inkscape:pageopacity="0.0"
     inkscape:pagecheckerboard="false"
     inkscape:deskcolor="#d1d1d1"
     inkscape:document-units="mm"
     inkscape:zoom="0.73"
     inkscape:cx="689.0411"
     inkscape:cy="-21.232877"
     inkscape:window-width="1920"
     inkscape:window-height="1027"
     inkscape:window-x="-8"
     inkscape:window-y="-8"
     inkscape:window-maximized="1"
     inkscape:current-layer="layer10">
    <inkscape:page
       x="0"
       y="0"
       width="159.24867"
       height="32.387257"
       id="page1"
       margin="0"
       bleed="0" />
  </sodipodi:namedview>
  <defs
     id="defs1" />
  <g
     inkscape:groupmode="layer"
     id="layer7"
     inkscape:label="ICON CS PREMIER"
     style="display:none"
     transform="translate(4.950954,103.26559)">
    <rect
       style="fill:#29377e;fill-opacity:1;stroke-width:0.699392"
       id="rect14-2"
       width="150.44821"
       height="150.33058"
       x="-34.374947"
       y="-77.522919" />
    <path
       fill="#ffffff"
       opacity="1"
       d="m 36.332582,-77.277454 c 3.2385,0.02469 6.484056,-0.09525 9.722555,0.03528 4.593167,1.153584 8.28675,4.988278 9.630834,9.500306 0.536222,0.229305 1.072444,0.465666 1.608666,0.705555 -0.331611,2.289528 -1.026583,4.497917 -1.538111,6.748639 -0.938389,-0.01058 -1.87325,-0.02469 -2.808111,-0.02469 0.05997,0.564444 0.123472,1.132416 0.1905,1.696861 13.677194,0.01764 27.357916,0.01764 41.03511,0 0.606778,-0.994834 1.231195,-1.996723 2.166056,-2.716389 0.151694,0.1905 0.451555,0.5715 0.60325,0.762 0.0071,1.033639 0.0071,2.070805 0.01764,3.1115 3.097389,0.03528 6.191249,-0.04233 9.288639,0.04586 0,0.786694 0,1.576916 0.004,2.367139 -3.10092,0.04939 -6.20184,-0.02469 -9.30628,0.04586 -0.01764,1.432277 0.09878,2.875139 -0.05997,4.307416 -0.09525,0.105834 -0.289277,0.3175 -0.384527,0.423334 -1.414639,0.148166 -2.836334,0.03528 -4.250973,0.05644 -6.431138,0.01764 -12.858749,-0.04233 -19.28636,-0.0035 -0.426861,1.608667 -0.60325,3.287889 -1.153584,4.861278 -0.306916,0.934861 -1.17475,1.795639 -0.850194,2.843389 0.557389,2.786944 1.375833,5.517444 1.845028,8.322027 -3.030361,0.719667 -6.050139,1.520473 -9.122833,2.053167 -0.271639,-1.298222 -0.529167,-2.596444 -0.864306,-3.877028 -1.778,2.109611 -1.887361,5.164667 -3.630083,7.288389 -1.559278,1.160639 -3.496028,1.742722 -5.393972,2.060222 -0.991306,0.1905 -1.869722,-0.416278 -2.695222,-0.864305 -1.651,-0.987778 -3.305528,-1.964972 -4.988278,-2.88925 -0.934861,0.924278 -1.788583,1.929694 -2.614083,2.95275 0.606777,0.804333 1.312333,1.562805 1.7145,2.497666 -0.179917,0.564445 -0.472723,1.083028 -0.744362,1.608667 -2.254249,4.201583 -4.317999,8.501944 -6.600472,12.689416 -0.874888,0.141111 -1.753305,0.268111 -2.631722,0.384528 0.130528,2.2013334 0.324556,4.3956111 0.419806,6.5969444 0.01764,1.4181666 1.404055,2.2189722 1.975555,3.40783324 2.836334,5.15055546 5.676195,10.29758336 8.530167,15.43755536 1.266472,2.286 2.54,4.568472 3.658305,6.928555 0.878417,1.823861 1.040695,3.90525 0.956028,5.9055 -0.08819,1.647472 -0.881944,3.129139 -1.488722,4.631972 -3.414889,8.35025 -6.865056,16.689917 -10.265833,25.047222 -0.342195,0.871361 -0.885472,1.647472 -1.562806,2.300111 -1.104194,1.075972 -2.19075,2.176639 -3.231444,3.319639 0.684389,1.121833 1.308805,2.293055 2.134305,3.326694 0.740834,0.948972 2.024945,1.107722 3.093861,1.499306 1.852084,0.635 3.806473,0.991305 5.584472,1.823861 0.814917,0.783166 0.03881,1.943805 -0.162277,2.843389 H 19.840221 c 0.232834,-1.280584 0.3175,-2.582334 0.508,-3.866445 0.243417,-1.80975 0.980723,-3.496027 1.414639,-5.256389 1.0795,-4.102805 2.543528,-8.113888 3.213806,-12.315472 0.469194,-2.670527 1.065389,-5.312833 1.527527,-7.98336 0.232834,-1.315862 0.440973,-2.659945 1.068917,-3.852334 2.007306,-3.735916 4.194528,-7.376583 6.085417,-11.172472 -1.446389,-0.846666 -3.044473,-1.580444 -4.060473,-2.973916 -3.316111,-4.300361 -6.23711,-8.886472 -9.027583,-13.543139 -0.596194,-0.948972 -1.153583,-1.9790831 -2.070805,-2.6599442 -0.747889,-0.088195 -1.559278,0.3069166 -1.897945,0.9948332 -0.652638,1.171222 -1.097138,2.44475 -1.651,3.668889 -2.942166,6.702778 -5.8772772,13.409083 -8.8406104,20.104805 -0.7761111,1.806222 -1.9614444,3.386667 -3.1855833,4.910667 -5.8031943,7.489472 -11.5816942,14.996583 -17.3778333,22.49311 -1.023055,1.354667 -2.363611,2.63525 -2.6035,4.402667 -0.303388,2.338916 -0.338666,4.702527 -0.60325,7.0485 h -14.594416 c 0.987778,-1.820334 1.93675,-3.658306 2.988028,-5.443361 0.381,-0.684389 0.8255,-1.347611 1.054805,-2.099028 0.07056,-0.677333 -0.03528,-1.351139 -0.05997,-2.017889 -0.112889,-1.792111 0.22225,-3.605389 0.931333,-5.252861 3.107973,-7.14375 6.138334,-14.322777 9.228667,-21.473583 0.829028,-1.8415 1.397,-3.84175 2.638778,-5.468055 1.679222,-2.102556 3.908777,-3.647722 5.9725272,-5.337528 0.8960556,-0.659694 0.8431389,-1.876778 1.0653889,-2.8575 0.9383889,-4.822472 1.0653889,-9.743722 1.5769166,-14.6191107 0.2187222,-1.6827499 0.067028,-3.4289999 0.5785556,-5.062361 0.7549444,-0.7831666 2.0743333,-0.2928055 3.0585832,-0.4445 1.4463889,-3.14324988 2.42711109,-6.4769998 3.76061106,-9.6661109 0.73377774,-1.7391944 2.83633324,-2.4376943 3.42899994,-4.2615554 0.6561666,-1.940278 1.2946944,-3.891139 1.8450277,-5.866694 -1.3793611,-0.941917 -2.7798888,-1.855611 -4.1980554,-2.734028 0.2575277,-1.058333 0.5221111,-2.116667 0.9101666,-3.132667 1.7003889,-4.695472 3.1361944,-9.489722 4.9247777,-14.156972 1.3723055,-0.03881 2.7481389,-0.0635 4.1239719,-0.02822 2.434167,-4.5085 4.053417,-9.415638 6.649861,-13.839472 1.799167,-2.917472 4.085167,-5.665611 7.122583,-7.344833 2.039056,-1.17475 4.473222,-0.899583 6.731,-1.005417 0.416278,-0.754944 0.843139,-1.509888 1.27,-2.257777 -0.772583,-0.398639 -1.548694,-0.790222 -2.321278,-1.178278 -0.22225,-2.194278 -0.377472,-4.399139 -0.352777,-6.604 0.0071,-1.643944 0.836083,-3.146778 1.756833,-4.455583 1.016,-1.439333 2.501194,-2.430639 3.901722,-3.453694 z"
       id="path8"
       style="stroke-width:0.352778" />
    <path
       fill="#faa41b"
       opacity="1"
       d="m -34.395833,-77.295093 c 23.576138,0.01058 47.152277,-0.02117 70.728415,0.01764 -1.400528,1.023055 -2.885722,2.014361 -3.901722,3.453694 -0.92075,1.308805 -1.749778,2.811639 -1.756833,4.455583 -0.02469,2.204861 0.130527,4.409722 0.352777,6.604 0.772584,0.388056 1.548695,0.779639 2.321278,1.178278 -0.426861,0.747889 -0.853722,1.502833 -1.27,2.257777 -2.257778,0.105834 -4.691944,-0.169333 -6.731,1.005417 -3.037416,1.679222 -5.323416,4.427361 -7.122583,7.344833 -2.596444,4.423834 -4.215694,9.330972 -6.649861,13.839472 -1.375833,-0.03528 -2.7516664,-0.01058 -4.1239719,0.02822 -1.7885833,4.66725 -3.2243888,9.4615 -4.9247777,14.156972 -0.3880555,1.016 -0.6526389,2.074334 -0.9101666,3.132667 1.4181666,0.878417 2.8186943,1.792111 4.1980554,2.734028 -0.5503333,1.975555 -1.1888611,3.926416 -1.8450277,5.866694 -0.5926667,1.8238611 -2.6952222,2.522361 -3.42899994,4.2615554 -1.33349997,3.1891111 -2.31422216,6.52286102 -3.76061106,9.6661109 -0.9842499,0.1516945 -2.3036388,-0.3386666 -3.0585832,0.4445 -0.5115278,1.6333611 -0.3598334,3.3796111 -0.5785556,5.062361 -0.5115277,4.8753887 -0.6385277,9.7966387 -1.5769166,14.6191107 -0.22225,0.980722 -0.1693333,2.197806 -1.0653889,2.8575 -2.0637502,1.689806 -4.2933052,3.234972 -5.9725272,5.337528 -1.241778,1.626305 -1.80975,3.626555 -2.638778,5.468055 -3.090333,7.150806 -6.120694,14.329833 -9.228667,21.473583 -0.709083,1.647472 -1.044222,3.46075 -0.931333,5.252861 0.0247,0.66675 0.130528,1.340556 0.05997,2.017889 -0.229305,0.751417 -0.673805,1.414639 -1.054805,2.099028 -1.051278,1.785055 -2.00025,3.623027 -2.988028,5.443361 h -2.141361 z"
       id="path13"
       style="stroke-width:0.352778" />
  </g>
  <g
     inkscape:groupmode="layer"
     id="layer12"
     inkscape:label="ICON CS PREMIER circulo"
     inkscape:export-filename="layer12.png"
     inkscape:export-xdpi="43.454685"
     inkscape:export-ydpi="43.454685"
     style="display:none"
     transform="translate(4.950954,103.26559)">
    <circle
       style="display:none;fill:#ffffff;stroke-width:0.275969"
       id="path16"
       cx="38.070602"
       cy="-15.140045"
       r="74.818291"
       inkscape:label="CIRCULO" />
    <path
       id="rect16"
       style="display:none;fill:#ffffff;fill-opacity:0.391931;stroke-width:0.244128"
       d="M -69.673783,-113.77083 V 78.786922 H 139.64109 V -113.77083 Z m 107.744327,23.812497 a 74.818291,74.818291 0 0 1 74.818176,74.818172 74.818291,74.818291 0 0 1 -74.818176,74.818172 74.818291,74.818291 0 0 1 -74.818172,-74.818172 74.818291,74.818291 0 0 1 74.818172,-74.818172 z"
       inkscape:label="CORTADOR" />
    <g
       id="g18">
      <path
         id="rect14-2-1"
         style="display:inline;fill:#29377e;fill-opacity:1;stroke-width:0.699392"
         inkscape:label="AZUL"
         d="M 38.070544,-89.958333 A 74.818291,74.818291 0 0 0 -36.747628,-15.140161 74.818291,74.818291 0 0 0 38.070544,59.678011 74.818291,74.818291 0 0 0 112.88872,-15.140161 74.818291,74.818291 0 0 0 38.070544,-89.958333 Z" />
      <path
         id="path8-7"
         style="display:inline;fill:#fafafa;fill-opacity:1;stroke-width:0.352778"
         inkscape:label="ICON"
         d="m 38.070544,-89.958333 a 74.818291,74.818291 0 0 0 -5.298384,0.188102 c -1.196076,0.867047 -2.391744,1.763769 -3.251481,2.98173 -0.92075,1.308805 -1.749899,2.811598 -1.756999,4.455542 -0.0247,2.204861 0.1307,4.40997 0.35295,6.604248 0.772584,0.388056 1.548206,0.779584 2.320789,1.178223 -0.426861,0.747889 -0.853412,1.502799 -1.26969,2.257743 -2.257778,0.105834 -4.6918,-0.169127 -6.730856,1.005623 -3.037416,1.679222 -5.323395,4.4273 -7.122562,7.344772 -2.596444,4.423834 -4.216073,9.330965 -6.6502404,13.839465 -1.375833,-0.03528 -2.7514738,-0.01091 -4.1237793,0.02791 -1.7885833,4.66725 -3.2243751,9.461804 -4.92476396,14.157276 -0.3880555,1.016 -0.65249424,2.074292 -0.91002194,3.132625 1.41816657,0.878417 2.8183155,1.792283 4.1976766,2.7342 -0.5503333,1.975555 -1.1886821,3.926031 -1.8448487,5.866309 -0.59266667,1.823861 -2.6954703,2.522561 -3.429248,4.261755 -1.3335,3.189111 -2.3141051,6.522827 -3.760494,9.666077 -0.9842499,0.151695 -2.3032669,-0.338749 -3.0582113,0.444417 -0.5115276,1.6333611 -0.3600538,3.3794734 -0.578776,5.0622233 -0.511528,4.87538874 -0.638776,9.7967907 -1.577165,14.6192627 -0.22225,0.980722 -0.168995,2.198013 -1.065051,2.857707 -2.06375,1.689806 -4.29354,3.235102 -5.972762,5.337658 -1.241778,1.626305 -1.809571,3.626384 -2.638599,5.467884 -0.657446,1.521283 -1.312428,3.043936 -1.965771,4.567163 a 74.818291,74.818291 0 0 0 11.430827,12.750126 C -7.70249,35.855827 -3.8498738,30.861474 0.01395264,25.874906 1.2380915,24.350906 2.4236936,22.770317 3.1998047,20.964095 6.1631379,14.268373 9.097926,7.5621571 12.040092,0.85937907 c 0.553862,-1.224139 0.998424,-2.49780467 1.651062,-3.66902667 0.338667,-0.6879166 1.150186,-1.0829663 1.898075,-0.9947713 0.917222,0.6808611 1.474481,1.7108139 2.070675,2.6597859 2.790473,4.656667 5.711762,9.2429984 9.027873,13.543359 1.016,1.393472 2.613828,2.127313 4.060217,2.973979 -1.890889,3.795889 -4.078111,7.436529 -6.085417,11.172445 -0.627944,1.192389 -0.835834,2.536616 -1.068668,3.852478 -0.462138,2.670527 -1.058362,5.312448 -1.527556,7.982975 -0.670278,4.201584 -2.134257,8.212722 -3.213757,12.315527 -0.433916,1.760362 -1.171484,3.446777 -1.414901,5.256527 -0.03915,0.263892 -0.07352,0.528705 -0.105936,0.79375 a 74.818291,74.818291 0 0 0 20.738785,2.931604 74.818291,74.818291 0 0 0 3.962032,-0.104903 c 0.260822,-0.857222 0.838991,-1.883826 0.09663,-2.597258 -1.777999,-0.832556 -3.732588,-1.189178 -5.584672,-1.824178 -1.068916,-0.391584 -2.353034,-0.550161 -3.093868,-1.499133 -0.8255,-1.033639 -1.449847,-2.205096 -2.134236,-3.326929 1.040694,-1.143 2.127133,-2.243205 3.231327,-3.319177 0.677334,-0.652639 1.221017,-1.428757 1.563212,-2.300118 C 39.511746,36.34901 42.961603,28.008998 46.376492,19.658748 46.98327,18.155915 47.7771,16.674462 47.86529,15.02699 47.94996,13.02674 47.78769,10.945268 46.909276,9.1214071 45.790976,6.7613241 44.517579,4.478631 43.251107,2.192631 40.397135,-2.947341 37.557212,-8.0941145 34.720878,-13.24467 c -0.5715,-1.188861 -1.95795,-1.989893 -1.97559,-3.40806 -0.09525,-2.201333 -0.289085,-4.395681 -0.419613,-6.597014 0.878417,-0.116417 1.756476,-0.243361 2.631364,-0.384472 2.282473,-4.187472 4.346382,-8.487565 6.600631,-12.689148 0.271639,-0.525639 0.564224,-1.044243 0.744141,-1.608688 -0.402167,-0.934861 -1.107331,-1.693189 -1.714108,-2.497522 0.8255,-1.023056 1.678933,-2.028513 2.613794,-2.952791 1.68275,0.924278 3.337326,1.901451 4.988326,2.889229 0.8255,0.448027 1.704137,1.05453 2.695443,0.86403 1.897944,-0.3175 3.834708,-0.8997 5.393986,-2.060339 1.742722,-2.123722 1.851753,-5.178316 3.629753,-7.287927 0.335139,1.280584 0.592907,2.578544 0.864546,3.876766 3.072694,-0.532694 6.092597,-1.333438 9.122958,-2.053105 -0.469195,-2.804583 -1.287977,-5.535029 -1.845366,-8.321973 -0.324556,-1.04775 0.543678,-1.908376 0.850594,-2.843237 0.550334,-1.573389 0.726557,-3.253052 1.153418,-4.861719 6.427611,-0.03883 12.855024,0.02126 19.286162,0.0036 1.414639,-0.02116 2.836264,0.09184 4.250903,-0.05633 0.09525,-0.105834 0.289223,-0.317396 0.384473,-0.42323 0.04132,-0.37281 0.0642,-0.746474 0.07545,-1.120345 a 74.818291,74.818291 0 0 0 -6.86108,-6.798551 c -12.320264,0.01273 -24.642906,0.01124 -36.962601,-0.0047 -0.06703,-0.564445 -0.130716,-1.13261 -0.190686,-1.697054 0.934861,0 1.869708,0.01422 2.808097,0.02481 0.511528,-2.250722 1.206796,-4.458898 1.538407,-6.748426 -0.536222,-0.239889 -1.072465,-0.476595 -1.608687,-0.7059 -1.176288,-3.948743 -4.152179,-7.378649 -7.955587,-8.94674 a 74.818291,74.818291 0 0 0 -6.749459,-0.304891 z" />
      <path
         id="path13-1"
         style="display:inline;fill:#faa41b;fill-opacity:1;stroke-width:0.352778"
         inkscape:label="AMARILLO"
         d="m 32.77216,-89.770231 a 74.818291,74.818291 0 0 0 -69.519788,74.63007 74.818291,74.818291 0 0 0 13.759884,43.239738 c 0.653345,-1.523233 1.308322,-3.045874 1.965771,-4.567163 0.829028,-1.8415 1.396821,-3.842095 2.638599,-5.4684 1.679222,-2.102556 3.909012,-3.647336 5.972762,-5.337142 0.896056,-0.659694 0.842801,-1.876985 1.065051,-2.857707 0.938389,-4.822472 1.065637,-9.74387396 1.577165,-14.6192627 0.2187222,-1.6827499 0.067248,-3.4288622 0.578776,-5.0622233 0.7549444,-0.783166 2.0739614,-0.292722 3.0582113,-0.444417 1.4463889,-3.14325 2.426994,-6.476965 3.760494,-9.666077 0.7337777,-1.739194 2.83658133,-2.437894 3.429248,-4.261755 0.6561666,-1.940278 1.2945154,-3.890754 1.8448487,-5.866309 -1.3793611,-0.941917 -2.77951003,-1.855783 -4.1976766,-2.7342 0.2575277,-1.058333 0.52196644,-2.116625 0.91002194,-3.132625 1.70038886,-4.695472 3.13618066,-9.490026 4.92476396,-14.157276 1.3723055,-0.0388 2.7479463,-0.06319 4.1237793,-0.02791 2.4341674,-4.5085 4.0537964,-9.415631 6.6502404,-13.839465 1.799167,-2.917472 4.085146,-5.66555 7.122562,-7.344772 2.039056,-1.17475 4.473078,-0.899789 6.730856,-1.005623 0.416278,-0.754944 0.842829,-1.509854 1.26969,-2.257743 -0.772583,-0.398639 -1.548205,-0.790167 -2.320789,-1.178223 -0.22225,-2.194278 -0.37764,-4.399387 -0.35295,-6.604248 0.0071,-1.643944 0.836249,-3.146737 1.756999,-4.455542 0.859726,-1.217945 2.055421,-2.114694 3.251481,-2.98173 z" />
    </g>
  </g>
  <g
     inkscape:groupmode="layer"
     id="g33"
     inkscape:label="TG COUNTER STRIKE COLORS prueba fianl logo"
     style="display:inline"
     transform="translate(4.950954,103.26559)">
    <g
       id="g36"
       transform="translate(91.335616,-77.200343)"
       inkscape:groupmode="layer">
      <path
         fill="#1f1f2e"
         opacity="1"
         d="m 37.905736,-21.654455 c 6.648067,-0.02465 13.297777,-0.0033 19.945844,-0.0115 0.818475,0.0049 1.673111,-0.04602 2.443922,0.285974 1.474245,0.555512 2.56555,2.014964 2.652655,3.591106 0.06245,0.716578 -0.08875,1.434799 -0.373082,2.090567 -0.757664,1.725703 -1.472601,3.467842 -2.215473,5.196832 -0.241601,0.5587987 -0.447041,1.1455377 -0.825053,1.6287348 -0.560441,0.7412307 -1.375632,1.2852381 -2.272995,1.521906 -0.613035,0.1577786 -1.250724,0.1331257 -1.875266,0.1314822 -5.638939,-0.00657 -11.276238,0.00657 -16.913536,-0.00657 -0.583452,1.2359323 -1.0913,2.5063786 -1.617229,3.7686078 5.740841,0 11.480037,-0.0016 17.220873,0 0.933524,-0.0641 1.855542,0.571947 2.120153,1.470956 0.185719,0.537434 0.07231,1.12088597 -0.151207,1.62873597 -0.331991,0.75930901 -0.642618,1.52683603 -0.986117,2.28121503 -9.060761,-0.0082 -18.119881,0.0049 -27.180646,-0.0066 1.132391,-2.70524503 2.29436,-5.397342 3.438258,-8.0976572 0.409235,-0.9417409 0.756024,-1.921283 1.336186,-2.775917 1.47753,-2.2434146 4.095668,-3.6880746 6.787766,-3.6930046 5.047273,-0.0033 10.092902,0 15.140171,0 0.535792,-1.227715 1.051858,-2.465291 1.56628,-3.702867 -6.828852,-0.01808 -13.659352,0 -20.488204,-0.0082 0.736298,-1.770078 1.487393,-3.533583 2.2467,-5.2938 m -0.678775,4.253448 c 6.828851,0.01315 13.659352,0.0049 20.488204,0.0049 -0.783963,1.941006 -1.610656,3.865575 -2.45543,5.780284 -4.997964,-0.0066 -9.997573,0 -14.995538,-0.0033 -0.604817,-0.0049 -1.214567,-0.01151 -1.811166,0.09204 -2.169457,0.325419 -4.161409,1.6994067 -5.219841,3.6223335 -0.267896,0.4716922 -0.468407,0.9746115 -0.675491,1.4742437 -1.035422,2.4373505 -2.083991,4.8697706 -3.104621,7.31369458 8.304741,0.0049 16.609482,-0.0099 24.914224,0.0066 0.276114,-0.639332 0.580167,-1.26880301 0.813546,-1.92456998 0.253104,-0.61961 -0.269541,-1.398642 -0.941743,-1.377276 -6.319359,-0.02301 -12.640362,0.0066 -18.959725,-0.01479 0.640974,-1.5728547 1.346048,-3.11777 1.970591,-4.6955559 0.08546,-0.00986 0.256388,-0.031227 0.34185,-0.041088 -0.05259,-0.044375 -0.157776,-0.1314821 -0.210369,-0.1758573 0.105187,-0.2909043 0.213658,-0.5818086 0.320485,-0.8727128 0.576878,-0.052593 1.158689,-0.050949 1.742141,-0.044375 5.259287,0.00164 10.518574,0 15.777856,0.00164 0.695212,-0.00493 1.423296,0.065741 2.082351,-0.2087279 0.795465,-0.2876172 1.446302,-0.9154442 1.773365,-1.6944759 0.751094,-1.765148 1.503829,-3.531939 2.254918,-5.298731 0.248175,-0.586739 0.560442,-1.175122 0.585096,-1.825958 0.103543,-1.270447 -0.675491,-2.540893 -1.830887,-3.060248 -0.489772,-0.239955 -1.04364,-0.279399 -1.577787,-0.281043 -6.634919,0.0016 -13.268194,-0.0016 -19.901468,0.0016 -0.473336,1.068293 -0.925306,2.144803 -1.380561,3.221313 z"
         id="path14"
         style="fill:#ffffff;fill-opacity:1;stroke-width:0.164353" />
      <path
         fill="#1f1f2e"
         opacity="1"
         d="m -49.960503,-19.092196 c 0.473336,-1.161973 1.692833,-1.959084 2.946844,-1.9295 2.483369,0.0049 4.966739,0.0033 7.451751,0.0033 -0.22845,0.575234 -0.422386,1.173478 -0.751092,1.70105 -0.167639,0.253103 -0.496345,0.308983 -0.775744,0.302409 -2.424203,-0.0016 -4.850048,-0.0066 -7.274251,0.0016 0.19558,0.215302 0.463475,0.331992 0.728083,0.450326 -0.544008,1.479175 -1.24908,2.894251 -1.827602,4.361921 2.327234,-0.0033 4.652825,-0.0099 6.980059,0.0033 -0.235024,0.563729 -0.440466,1.143894 -0.7363,1.681328 -0.146274,0.310626 -0.520998,0.351715 -0.821763,0.351715 -2.083993,0 -4.167985,-0.0066 -6.251977,0.0016 -0.338567,0.0016 -0.690281,-0.01644 -0.989403,-0.190649 -0.723152,-0.350071 -1.025561,-1.304961 -0.700143,-2.026469 0.673846,-1.571212 1.350979,-3.14078 2.021538,-4.711992 z"
         id="path17"
         style="fill:#29377e;fill-opacity:1;stroke-width:0.164353" />
      <path
         fill="#1f1f2e"
         opacity="1"
         d="m -36.754764,-20.99047 c 2.498161,-0.06903 5.001253,-0.0082 7.501057,-0.02958 0.92695,-0.03945 1.732278,0.910514 1.554777,1.816098 -0.136413,0.539077 -0.405951,1.030491 -0.617966,1.541628 -0.520998,1.227714 -1.045283,2.452142 -1.57943,3.674926 -0.481553,1.081441 -1.625448,1.825959 -2.812074,1.817741 -2.356818,-0.0049 -4.713636,-0.0016 -7.070453,-0.0016 -0.826694,0.03945 -1.592578,-0.682064 -1.600795,-1.505471 -0.0263,-0.488128 0.23338,-0.920375 0.414168,-1.35591 0.593313,-1.377275 1.175122,-2.759481 1.781584,-4.130183 0.427317,-0.971324 1.373988,-1.694477 2.429132,-1.827602 m -0.857921,2.011677 c 0.225164,0.17257 0.539077,0.266251 0.698499,0.51278 -0.609748,1.413434 -1.209636,2.831797 -1.829245,4.2403 1.903204,0.06081 3.809695,0.0082 5.714543,0.0263 0.386229,0.04273 0.756022,-0.192293 0.889148,-0.557156 0.611392,-1.41179 1.21621,-2.82851 1.827602,-4.240299 -2.113576,-0.04766 -4.228795,0 -6.342371,-0.02465 -0.322131,-0.0066 -0.640975,0.0066 -0.958176,0.04273 z"
         id="path18"
         style="fill:#29377e;fill-opacity:1;stroke-width:0.164353" />
      <path
         fill="#1f1f2e"
         opacity="1"
         d="m -25.892694,-20.019145 c 0.22352,-0.560443 0.783963,-0.994334 1.398642,-0.994334 0.535789,-0.02794 1.073223,-0.0049 1.610656,0.0115 -0.968037,2.264781 -1.94758,4.52463 -2.895894,6.797628 1.636952,0.0016 3.273905,-0.0049 4.910858,0.0049 0.262964,-0.01479 0.565373,0.02136 0.793824,-0.147918 0.190649,-0.157778 0.281043,-0.397733 0.384585,-0.616322 0.683707,-1.658319 1.408502,-3.300202 2.108645,-4.95359 0.207084,-0.562087 0.710004,-1.048571 1.329614,-1.088015 0.558799,-0.03123 1.119241,-0.0033 1.679684,-0.02465 -0.767527,1.990311 -1.666536,3.929672 -2.4883,5.900261 -0.282687,0.634402 -0.48484,1.326326 -0.951602,1.858829 -0.578522,0.688638 -1.46767,1.106094 -2.368323,1.09952 -2.026468,0.0049 -4.052937,-0.0082 -6.079406,0.0066 -0.430604,-0.0016 -0.889148,0.0016 -1.262228,-0.238312 -0.649194,-0.397733 -0.925306,-1.290169 -0.601531,-1.982093 0.813546,-1.876908 1.618874,-3.757103 2.430776,-5.634011 z"
         id="path19"
         style="fill:#29377e;fill-opacity:1;stroke-width:0.164353" />
      <path
         fill="#1f1f2e"
         opacity="1"
         d="m -12.884178,-20.9954 c 0.714935,-0.02629 1.433156,-0.05588 2.14809,0.0033 0.282687,0.03287 0.442109,0.310626 0.576878,0.532502 0.9762554,1.837463 1.9410054,3.683144 2.9402699,5.509102 0.7576661,-1.678041 1.4660262,-3.379091 2.2006825,-5.066993 0.2103716,-0.516067 0.6935687,-0.930236 1.2589418,-0.982829 0.5867392,-0.04602 1.1767653,-0.01151 1.7667914,-0.01808 -1.0650055,2.516238 -2.1661685,5.017686 -3.2328176,7.532282 -0.1692833,0.374724 -0.2941913,0.777388 -0.5489377,1.10445 -0.243242,0.277756 -0.642619,0.19558 -0.9663942,0.215302 -0.4881275,-0.0115 -0.9811855,0.03123 -1.4660257,-0.03945 -0.3237752,-0.09861 -0.4651181,-0.430604 -0.6179664,-0.698499 -0.8957223,-1.697763 -1.806236,-3.388952 -2.705245,-5.086716 -0.106829,0.175858 -0.210372,0.355002 -0.290904,0.544008 -0.604819,1.424937 -1.219498,2.843302 -1.829246,4.264952 -0.19558,0.489771 -0.622897,0.889148 -1.150469,0.976255 -0.616323,0.07889 -1.239219,0.02301 -1.857185,0.02958 1.239219,-2.948487 2.547466,-5.867391 3.773537,-8.819165 z"
         id="path20"
         style="fill:#29377e;fill-opacity:1;stroke-width:0.164353" />
      <path
         fill="#1f1f2e"
         opacity="1"
         d="m -0.74837433,-21.011836 c 3.02244603,0.0066 6.04653583,-0.0378 9.06898183,0.02301 -0.233381,0.494702 -0.409238,1.017344 -0.668915,1.498897 -0.177501,0.323775 -0.562087,0.468405 -0.913802,0.465118 -0.846416,0.01972 -1.692832,-0.0049 -2.537605,0.0099 -0.849704,1.950869 -1.6796846,3.909954 -2.522814,5.864107 -0.2120153,0.547295 -0.75437893,0.946672 -1.34111823,0.969681 -0.5440072,0.03123 -1.0896581,0.0066 -1.63202207,0.0099 0.95817597,-2.291077 1.98538027,-4.554213 2.922191,-6.853507 -1.07979723,0.0016 -2.15959443,0.01644 -3.237748,-0.0016 0.2744685,-0.667272 0.5801647,-1.321396 0.86285147,-1.985381 z"
         id="path21"
         style="fill:#29377e;fill-opacity:1;stroke-width:0.164353" />
      <path
         fill="#1f1f2e"
         opacity="1"
         d="m 9.7143185,-20.719288 c 0.4108805,-0.328705 0.9631055,-0.300765 1.4610945,-0.302408 2.665801,0.02301 5.334889,-0.02629 8.000688,0.02465 -0.246526,0.537433 -0.443753,1.096232 -0.724796,1.61723 -0.129836,0.254747 -0.433889,0.356645 -0.700141,0.356645 -2.457072,0.0378 -4.917432,-0.04602 -7.372861,0.03945 0.238311,0.157779 0.489771,0.302409 0.744517,0.440466 -0.185718,0.386228 -0.351714,0.783962 -0.471692,1.194844 1.876908,-0.0033 3.753816,0.0033 5.632369,-0.0049 -0.141344,0.502919 -0.328707,0.999264 -0.603177,1.446304 -0.246528,0.327062 -0.691924,0.299122 -1.0535,0.305696 -1.586004,-0.01315 -3.172007,-0.0016 -4.7563665,-0.0099 -0.215302,0.458544 -0.427317,0.920375 -0.627827,1.387137 2.3321635,0.05588 4.6659715,0.0016 6.9997805,0.0263 -0.266252,0.565373 -0.453615,1.168547 -0.762597,1.710911 -0.179144,0.289261 -0.54072,0.336923 -0.848059,0.322132 -2.524458,-0.01315 -5.0489145,0.0016 -7.5733725,-0.0066 -0.598244,0.07067 -1.068293,-0.622897 -0.765883,-1.15047 0.854634,-1.987024 1.712555,-3.972404 2.562258,-5.961072 0.22845,-0.506206 0.382942,-1.097876 0.859565,-1.436442 z"
         id="path22"
         style="fill:#29377e;fill-opacity:1;stroke-width:0.164353" />
      <path
         fill="#1f1f2e"
         opacity="1"
         d="m 20.724305,-21.024984 c 2.460358,0.0099 4.919077,0.0033 7.379435,0.0049 0.470051,0.0049 0.945027,-0.03123 1.416723,0.03451 0.649192,0.133126 1.186624,0.723152 1.239217,1.38878 0.0493,0.470049 -0.187364,0.900653 -0.358286,1.319752 -0.504564,1.101163 -0.940098,2.23191 -1.447951,3.329786 -0.198866,0.489771 -0.716577,0.682064 -1.181695,0.821764 0.335281,0.650836 0.690283,1.291812 1.018986,1.947579 -0.88586,0.01644 -1.770076,0.0066 -2.655941,0.0099 -0.300763,-0.534147 -0.58838,-1.074866 -0.875997,-1.615587 -0.113405,-0.154491 -0.187363,-0.447039 -0.430605,-0.399377 -1.489037,-0.01644 -2.978069,0.0033 -4.465462,-0.0066 -0.192292,0.414169 -0.355002,0.839842 -0.56866,1.242506 -0.238312,0.440466 -0.711648,0.746162 -1.212923,0.76424 -0.555512,0.0378 -1.112669,0.0082 -1.666537,0.0082 1.257298,-2.956705 2.527743,-5.905192 3.809696,-8.850392 m 0.752734,2.016607 c 0.215303,0.189006 0.468407,0.327062 0.729729,0.450326 -0.307342,0.808616 -0.67878,1.592578 -1.005838,2.39462 1.58929,0.0115 3.176935,-0.0049 4.766225,0.0066 0.290906,-0.01151 0.598244,0.0115 0.882576,-0.08546 0.246526,-0.152848 0.348428,-0.443753 0.468402,-0.693569 0.287621,-0.688638 0.581812,-1.375632 0.880931,-2.060982 -2.240127,-0.04437 -4.481898,-0.01808 -6.722025,-0.01151 z"
         id="path23"
         style="fill:#29377e;fill-opacity:1;stroke-width:0.164353" />
      <path
         fill="#1f1f2e"
         opacity="1"
         d="m -36.896107,-6.0442358 c 0.481553,-1.1044501 1.666536,-1.8325325 2.866311,-1.8128102 2.697028,-0.00329 5.394056,0.00493 8.091083,-0.00493 -0.215302,0.576878 -0.42403,1.1619735 -0.7363,1.6944763 -0.126551,0.215302 -0.394446,0.2991219 -0.629471,0.3040525 -2.713463,0.032871 -5.426926,-0.042732 -8.138745,0.036157 0.239955,0.1643527 0.496345,0.3040525 0.757666,0.4355347 -0.115047,0.2991219 -0.235025,0.5966003 -0.353358,0.8957221 1.765147,0.00329 3.531939,-0.00986 5.29873,0.00493 0.728083,0.00164 1.415077,0.5620862 1.536698,1.2868812 0.118334,0.501276 -0.136413,0.981186 -0.320488,1.431512 -0.220232,0.486484 -0.397733,0.99762097 -0.695212,1.44301697 -0.598243,0.84641601 -1.633665,1.35097903 -2.6658,1.31975201 -2.680593,-0.0066 -5.359542,0.0016 -8.03849,-0.0033 0.266251,-0.567017 0.46183,-1.16690401 0.770813,-1.71419901 0.175858,-0.28926097 0.550582,-0.30240897 0.852991,-0.31391297 2.328878,-0.02794 4.661043,0.03944 6.988277,-0.03123 0.169283,-0.4569 0.363219,-0.902296 0.555512,-1.349335 -1.801306,-0.04109 -3.602611,0.0099 -5.403917,-0.02465 -0.96475,-0.01479 -1.709268,-1.058432 -1.415077,-1.9771628 0.185719,-0.5555121 0.443753,-1.0830843 0.678777,-1.6205176 z"
         id="path24"
         style="fill:#faa41b;fill-opacity:1;stroke-width:0.164353" />
      <path
         fill="#1f1f2e"
         opacity="1"
         d="m -24.720859,-7.6877627 c 0.06903,-0.2531031 0.363219,-0.1512045 0.553868,-0.1791444 2.85645,0.00986 5.7129,-0.00164 8.570994,0.00657 -0.19558,0.4996322 -0.37308,1.007482 -0.629471,1.4808178 -0.179144,0.3845853 -0.637688,0.5242851 -1.032135,0.5209981 -0.816833,0.011505 -1.633666,-0.00822 -2.450499,0.00657 -0.84806,1.977163 -1.691189,3.955969 -2.547467,5.92984598 -0.215302,0.488127 -0.703429,0.848059 -1.235932,0.897365 -0.56866,0.04438 -1.138964,0.0082 -1.705981,0.0082 0.976255,-2.27957198 1.960728,-4.55585658 2.935339,-6.83542848 -1.07651,-0.00657 -2.151377,-0.00493 -3.226243,-0.00657 0.235024,-0.6179661 0.488127,-1.2293581 0.767527,-1.8292459 z"
         id="path25"
         style="fill:#faa41b;fill-opacity:1;stroke-width:0.164353" />
      <path
         fill="#1f1f2e"
         opacity="1"
         d="m -14.388005,-7.8554025 c 2.715107,-0.021366 5.4302133,0.00164 8.1469636,-0.013148 0.3632195,0.00164 0.7478048,0.00329 1.0781536,0.1857186 0.7182213,0.3599324 1.0436397,1.3148215 0.6902815,2.0396169 -0.5374336,1.2671593 -1.0715796,2.5376058 -1.630379,3.7965468 -0.1939363,0.512781 -0.7165777,0.752736 -1.212923,0.87106997 0.320488,0.663984 0.695212,1.30002901 1.0239176,1.95908401 -0.8743565,0.01479 -1.7470693,-0.0115 -2.6197821,0.01972 -0.4289606,-0.6426191 -0.7560226,-1.34440511 -1.1258162,-2.018251 -1.572855,-0.02958 -3.148998,-0.04438 -4.720209,0.0066 -0.287617,0.69192489 -0.502919,1.5728559 -1.275377,1.8736209 -0.691925,0.2251631 -1.436443,0.08711 -2.149734,0.118334 1.260585,-2.9484869 2.549111,-5.8838264 3.794904,-8.8388879 m 0.774101,2.0248252 c 0.235025,0.1627092 0.486484,0.3073396 0.744518,0.4388218 -0.325418,0.795467 -0.683707,1.5777859 -1.000908,2.37654 1.610657,0.02137 3.221313,0.0016 4.8336132,0.01479 0.2728254,-0.01972 0.5867393,0.03287 0.8283376,-0.136413 0.2481723,-0.151205 0.3484277,-0.4404653 0.4634744,-0.6935684 0.2761127,-0.6771331 0.5785216,-1.3444051 0.8546343,-2.0231817 -2.2417709,0.00657 -4.4835415,-0.036157 -6.7236695,0.023009 z"
         id="path26"
         style="fill:#faa41b;fill-opacity:1;stroke-width:0.164353" />
      <path
         fill="#1f1f2e"
         opacity="1"
         d="m -1.3942806,-7.857046 c 0.85463427,-0.011505 1.70762447,-0.00329 2.5622588,-0.00657 -1.11924203,2.6920971 -2.3042251,5.3562548 -3.4267539,8.04670778 -0.1462738,0.376368 -0.4355347,0.73137 -0.8579211,0.780675 -0.6919247,0.05917 -1.385493,0.0082 -2.0757745,0.02301 1.2540109,-2.95341798 2.5293881,-5.89697438 3.7981907,-8.84381828 z"
         id="path27"
         style="fill:#faa41b;fill-opacity:1;stroke-width:0.164353" />
      <path
         fill="#1f1f2e"
         opacity="1"
         d="m 3.2026645,-7.8586895 c 0.831625,-0.00164 1.663249,-0.021366 2.494874,0.014792 -0.56866,1.3559097 -1.184983,2.6904536 -1.72899,4.054581 2.044547,-1.2720899 3.96583,-2.7430465 6.00216,-4.0282846 1.2950985,-0.1002552 2.6082765,-0.026296 3.9099505,-0.034514 -0.305696,0.3106266 -0.677133,0.5407203 -1.035422,0.7823188 -1.814454,1.2605852 -3.6404115,2.5063786 -5.4515785,3.7735381 0.968037,1.439729 1.982093,2.84823197 2.9599915,4.28303098 -0.9203745,-0.0033 -1.8407505,0.01479 -2.7611245,-0.01479 -0.567018,-0.813546 -1.102807,-1.65174401 -1.694477,-2.44721098 -0.974611,0.01808 -1.947579,0.0066 -2.9205472,0.0066 -0.3533582,0.81025797 -0.7264391,1.61229998 -1.0452833,2.43570698 -0.8431294,0.04438 -1.68790193,0.01644 -2.52938813,0.01644 C 0.65026717,-1.9715742 1.9420793,-4.9085571 3.2026645,-7.858688 Z"
         id="path30"
         style="fill:#faa41b;fill-opacity:1;stroke-width:0.164353" />
      <path
         fill="#1f1f2e"
         opacity="1"
         d="m 14.23566,-6.8281981 c 0.225164,-0.6344014 0.866139,-1.066649 1.53834,-1.0337785 2.805502,0.00164 5.611004,0 8.416502,0.00164 -0.18243,0.5522251 -0.402662,1.0945889 -0.668913,1.6122999 -0.124908,0.2596773 -0.425676,0.3862289 -0.698501,0.3878724 -2.462003,0.026297 -4.924006,-0.034514 -7.384366,0.029583 0.23338,0.1561351 0.483195,0.2941913 0.737944,0.4207429 -0.147917,0.4010206 -0.313916,0.79218 -0.49799,1.1767653 1.896632,0.1018987 3.801478,0.00657 5.701394,0.044375 -0.207084,0.4700487 -0.36322,0.9663939 -0.624537,1.4117899 -0.144633,0.241599 -0.438824,0.325418 -0.701786,0.320488 -1.717487,0.0378 -3.438258,-0.02794 -5.154102,0.02958 -0.187362,0.463475 -0.389516,0.918732 -0.581808,1.378919 2.323947,0.01479 4.64625,-0.0066 6.970198,0.0099 -0.243241,0.55715497 -0.437178,1.13732098 -0.733013,1.67146698 -0.184075,0.37143702 -0.647548,0.355002 -0.99762,0.359932 -2.522815,-0.01644 -5.045629,0.01644 -7.566799,-0.01644 -0.548938,-0.01315 -0.876,-0.683707 -0.616323,-1.15046901 0.951602,-2.21876097 1.899917,-4.44081017 2.86138,-6.65464127 z"
         id="path31"
         style="fill:#faa41b;fill-opacity:1;stroke-width:0.164353" />
      <path
         fill="#1f1f2e"
         opacity="1"
         d="m -94.074054,-26.040843 c 7.750161,0.01686 20.195989,-0.09693 27.946154,0.059 -0.598434,1.268518 -1.049368,2.608677 -1.715236,3.843479 -0.455144,0.830222 -1.441303,1.201084 -2.343169,1.192657 -2.170385,0.05057 -6.145171,-0.01266 -8.311338,0.02528 -2.178815,5.00242 -4.307053,10.025912 -6.46901,15.0367571 -0.543647,1.4033746 -1.934378,2.4274591 -3.438898,2.4864582 -1.394946,0.080072 -2.794107,0.016865 -4.184838,0.025281 2.456957,-5.8747874 5.090922,-11.6779283 7.493089,-17.5737883 -2.768813,0.0042 -8.424679,0.04215 -11.189284,-0.0042 0.703795,-1.711025 1.487662,-3.38833 2.21253,-5.090922 z"
         id="path32"
         inkscape:label="T"
         style="fill:#ffffff;fill-opacity:1;stroke-width:0.421433"
         sodipodi:nodetypes="cccccccccccc" />
      <path
         fill="#1f1f2e"
         opacity="1"
         d="m -79.823002,-11.19384 c 1.19645,-2.93712 4.278962,-4.951982 7.448733,-4.877206 6.277202,0.01246 12.554405,0.0082 18.835765,0.0082 -0.577452,1.454015 -1.067672,2.966196 -1.898541,4.299744 -0.423736,0.639764 -1.2546,0.781008 -1.960848,0.764393 -6.127644,-0.0047 -12.259448,-0.01663 -18.387092,0.0047 0.49437,0.544222 1.171518,0.839176 1.840374,1.1382934 -1.375091,3.7389028 -3.15731,7.315792 -4.619624,11.0256055 8.300659,-0.011789 11.331072,-0.081138 11.331072,-0.081138 l 1.775463,-4.1896062 -4.252575,-1.5359571 c 0,0 9.688802,0.090915 11.159437,0.099276 -0.594069,1.4249407 -1.07851,2.7868548 -4.231078,9.9655724 -0.369732,0.7851721 -1.316913,0.8890382 -2.077156,0.8890382 -5.267707,0 -10.53541,-0.016627 -15.803105,0.00464 -0.855789,0.00471 -1.744827,-0.041573 -2.50091,-0.4819167 -1.82792,-0.8848665 -2.592316,-3.2985353 -1.769754,-5.12229686 1.703278,-3.97153834 3.414875,-7.93893614 5.109839,-11.91047664 z"
         id="path33"
         inkscape:label="G"
         style="display:inline;fill:#ffffff;fill-opacity:1;stroke-width:0.415433"
         sodipodi:nodetypes="cccccccccccccsccccc" />
    </g>
  </g>
  <g
     inkscape:groupmode="layer"
     id="layer11"
     inkscape:label="TG COUNTER STRIKE COLORS 1"
     style="display:none"
     transform="translate(4.950954,103.26559)">
    <g
       id="g2"
       transform="matrix(1.2842263,0,0,1.2842263,172.17892,-132.06576)"
       style="display:inline">
      <path
         fill="#1f1f2e"
         opacity="1"
         d="m -139.80784,-13.162933 c 26.73104,0.05817 53.476629,-0.334322 80.207669,0.203489 -2.064052,4.3752381 -3.619367,8.9975681 -5.916007,13.25651806 -1.569835,2.86351204 -4.971188,4.14265204 -8.081809,4.11358304 -7.485861,0.174416 -14.971719,-0.04366 -22.443031,0.0872 -7.514932,17.2538129 -14.855432,34.5803059 -22.312222,51.8631769 -1.87508,4.84037 -6.67185,8.372533 -11.86108,8.576026 -4.81129,0.276176 -9.63713,0.05817 -14.43389,0.0872 8.47427,-20.26269 17.55906,-40.278264 25.84436,-60.6136349 -9.54989,0.01458 -19.09983,0.145366 -28.63521,-0.01458 2.42745,-5.901484 5.13108,-11.686663 7.63122,-17.5590631 z"
         id="path28-0-7"
         inkscape:label="T"
         style="fill:#29377e;fill-opacity:1;stroke-width:1.45356" />
      <path
         fill="#1f1f2e"
         opacity="1"
         d="m -100.61231,38.045766 c 4.126673,-10.130404 14.758545,-17.07985 25.691378,-16.82194 21.650658,0.04297 43.301317,0.02837 64.966317,0.02837 -1.99169,5.015036 -3.6825,10.230688 -6.54825,14.83022 -1.4615,2.206606 -4.32723,2.69377 -6.76315,2.636463 -21.13481,-0.01623 -42.283978,-0.05735 -63.418794,0.01623 1.705129,1.877073 4.040676,2.894399 6.347623,3.926082 -4.742818,12.895824 -10.889858,25.232849 -15.933514,38.028342 28.629745,-0.04066 39.081923,-0.279853 39.081923,-0.279853 l 6.12374,-14.450343 -14.66753,-5.297659 c 0,0 33.417582,0.313576 38.489942,0.342411 -2.049,4.914754 -3.71988,9.612123 -14.59339,34.372189 -1.27524,2.708132 -4.54215,3.066376 -7.164299,3.066376 -18.168814,0 -36.337612,-0.05735 -54.506386,0.016 -2.95169,0.01623 -6.01807,-0.143391 -8.62587,-1.662176 -6.30467,-3.051986 -8.94114,-11.376955 -6.10405,-17.667279 5.87477,-13.698207 11.77823,-27.382132 17.62431,-41.080346 z"
         id="path29-1-3"
         inkscape:label="G"
         style="display:inline;fill:#29377e;fill-opacity:1;stroke-width:1.43287"
         sodipodi:nodetypes="cccccccccccccsccccc" />
    </g>
  </g>
</svg>
